#!OML:ASF H:\Terrain\Patient Classification 1\Takeo\Monday\TakeoMonday.ASF
:FULLY-SPECIFIED
:DEGREES
2232
root 10.2935 17.7253 -0.189184 -10.3335 -8.85048 1.10341
lowerback 0.0447279 -0.0129597 2.586
upperback 0.698734 -0.0249118 -0.272308
thorax 0.68959 0.00381316 -1.72854
lowerneck -3.79187 11.0248 8.56394
upperneck 39.5711 16.5199 -3.07045
head 15.6675 7.99997 -0.37612
rclavicle -1.3418e-015 6.36111e-015
rhumerus 56.3294 6.95134 -41.5935
rradius 147.248
rwrist -23.3663
rhand -23.9866 25.1958
rfingers 7.12502
rthumb 2.49031 -4.76938
lclavicle -1.3418e-015 6.36111e-015
lhumerus -37.8895 15.3213 81.9646
lradius 31.0854
lwrist 38.4262
lhand -23.8187 26.5009
lfingers 7.12502
lthumb 2.65242 56.4641
rfemur 9.47153 3.19381 17.5885
rtibia 17.3278
rfoot -14.0951 -15.8474
rtoes -1.89967
lfemur 10.0632 -0.0397818 -23.0443
ltibia 17.3049
lfoot -16.0806 19.1399
ltoes 0.121032
2233
root 10.2945 17.7237 -0.189825 -10.3859 -8.75623 1.31601
lowerback 0.0578039 -0.0421494 2.34097
upperback 0.742968 -0.062724 -0.34134
thorax 0.725735 -0.0154733 -1.66209
lowerneck -3.73651 10.9668 8.52076
upperneck 39.8755 16.3929 -2.87943
head 15.7731 7.95787 -0.308564
rclavicle 1.94312e-014 7.15625e-015
rhumerus 56.1141 6.64874 -42.0407
rradius 146.783
rwrist -23.4608
rhand -23.9527 25.4778
rfingers 7.12502
rthumb 2.52308 -4.48705
lclavicle 1.94312e-014 7.15625e-015
lhumerus -37.9321 15.3071 82.0171
lradius 30.9835
lwrist 38.6955
lhand -24.4357 26.4499
lfingers 7.12502
lthumb 2.0566 56.4198
rfemur 9.37255 3.06308 17.2984
rtibia 17.575
rfoot -14.2585 -15.7353
rtoes -1.03735
lfemur 10.1599 -0.0633649 -23.2901
ltibia 17.1229
lfoot -15.9638 19.1522
ltoes -0.00947774
2234
root 10.2964 17.7211 -0.192661 -10.3585 -8.57859 1.83404
lowerback -0.0274626 -0.0344232 1.78694
upperback 0.719481 -0.0510238 -0.467698
thorax 0.750029 -0.0126187 -1.48078
lowerneck -3.28484 10.8872 8.34648
upperneck 39.8627 16.2571 -2.71623
head 15.6092 7.91346 -0.273902
rclavicle 3.37934e-015 -7.35503e-015
rhumerus 55.7654 6.47436 -42.2707
rradius 146.183
rwrist -23.635
rhand -24.177 26.4627
rfingers 7.12502
rthumb 2.30641 -3.50461
lclavicle 3.37934e-015 -7.35503e-015
lhumerus -38.1696 15.4309 82.1202
lradius 31.1123
lwrist 38.6681
lhand -24.5874 25.514
lfingers 7.12502
lthumb 1.9101 55.4852
rfemur 9.20961 2.90068 16.6546
rtibia 17.6998
rfoot -14.3987 -15.5861
rtoes -0.597254
lfemur 10.0374 -0.141255 -23.8842
ltibia 17.0492
lfoot -15.8372 19.1915
ltoes -0.0554746
2235
root 10.2959 17.7185 -0.193273 -10.2862 -8.59004 1.8151
lowerback -0.0930342 -0.0174616 1.80625
upperback 0.731545 -0.0295304 -0.501501
thorax 0.799986 -0.00103363 -1.52616
lowerneck -3.18084 10.8725 8.17147
upperneck 40.0505 16.0748 -2.18923
head 15.5805 7.87621 -0.0650874
rclavicle -2.45002e-014 0
rhumerus 55.5141 6.32803 -42.6069
rradius 145.571
rwrist -23.5844
rhand -24.6131 26.3798
rfingers 7.12502
rthumb 1.88525 -3.59159
lclavicle -2.45002e-014 0
lhumerus -38.3562 15.7134 81.9873
lradius 31.2275
lwrist 38.304
lhand -24.5681 24.4973
lfingers 7.12502
lthumb 1.92875 54.4683
rfemur 9.08397 2.88763 16.6723
rtibia 17.7941
rfoot -14.4958 -15.5259
rtoes -1.58625
lfemur 9.99147 -0.206597 -23.8888
ltibia 16.9979
lfoot -15.8785 19.2789
ltoes 0.10511
2236
root 10.2948 17.7186 -0.193729 -10.2673 -8.69396 1.38492
lowerback -0.0584433 -0.0798255 2.14041
upperback 0.818687 -0.115394 -0.376492
thorax 0.866248 -0.0407014 -1.58621
lowerneck -3.24779 10.909 8.22521
upperneck 40.2592 16.03 -1.93969
head 15.677 7.88684 0.0340249
rclavicle 1.62506e-014 5.1684e-015
rhumerus 55.5021 6.21402 -43.0575
rradius 145.051
rwrist -23.334
rhand -24.6783 25.2911
rfingers 7.12502
rthumb 1.8223 -4.68091
lclavicle 1.62506e-014 5.1684e-015
lhumerus -38.2511 15.8904 81.8734
lradius 31.0167
lwrist 38.2609
lhand -24.3434 25.6738
lfingers 7.12502
lthumb 2.14567 55.6428
rfemur 9.09869 2.92678 17.1737
rtibia 17.8285
rfoot -14.5235 -15.5324
rtoes -2.30632
lfemur 10.0421 -0.120269 -23.4068
ltibia 17.0141
lfoot -15.5176 19.3941
ltoes -1.13862
2237
root 10.295 17.7213 -0.196932 -10.3009 -8.69995 1.34287
lowerback 0.00787869 -0.115057 2.10153
upperback 0.886261 -0.161638 -0.338515
thorax 0.896462 -0.0633651 -1.52578
lowerneck -3.12573 10.8651 8.30363
upperneck 40.2396 15.9869 -2.04038
head 15.6582 7.87031 -0.0359987
rclavicle 3.87133e-014 1.35174e-014
rhumerus 55.3865 6.0734 -43.4709
rradius 144.477
rwrist -23.2309
rhand -24.5007 25.2348
rfingers 7.12502
rthumb 1.9938 -4.73563
lclavicle 3.87133e-014 1.35174e-014
lhumerus -38.1986 16.0564 81.8594
lradius 30.8393
lwrist 38.2693
lhand -23.7037 26.7524
lfingers 7.12502
lthumb 2.76352 56.7142
rfemur 9.21469 2.82139 17.1971
rtibia 17.665
rfoot -14.3356 -15.4604
rtoes -2.15736
lfemur 10.0014 0.129477 -23.3233
ltibia 17.1813
lfoot -15.0133 19.434
ltoes -3.0519
